<?xml version="1.0" encoding="utf-8"?>
<!-- Generator: Adobe Illustrator 23.0.6, SVG Export Plug-In . SVG Version: 6.00 Build 0)  -->
<svg version="1.1" id="Capa_1" xmlns="http://www.w3.org/2000/svg" xmlns:xlink="http://www.w3.org/1999/xlink" x="0px" y="0px"
	 viewBox="0 0 90.85 109.21" style="enable-background:new 0 0 90.85 109.21;" xml:space="preserve">
<style type="text/css">
	.st0{fill:#FFFFFF;}
	.st1{fill:#1A171C;}
	.st2{fill:#EDEDED;}
	.st3{fill:#9C9E9E;}
</style>
<path class="st0" d="M45.32,108.99c24.97,0,45.21-24.34,45.21-54.37S70.29,0.25,45.32,0.25S0.11,24.58,0.11,54.61
	S20.36,108.99,45.32,108.99"/>
<path class="st1" d="M45.42,0.46c24.79,0,45,24.33,45,54.15c0,29.83-20.21,54.16-45,54.16v0.44c25.03,0,45.43-24.51,45.43-54.6
	S70.45,0.02,45.42,0.02C45.42,0.02,45.42,0.46,45.42,0.46z"/>
<path class="st1" d="M45.42,108.77c-24.79-0.01-45-24.32-45-54.16c0-29.82,20.21-54.15,45-54.15V0.02C20.4,0.02,0,24.53,0,54.61
	s20.4,54.6,45.42,54.6V108.77z"/>
<path class="st1" d="M45.42,2.17c-23.86,0-43.31,23.55-43.31,52.44s19.46,52.43,43.31,52.43c23.87,0,43.32-23.56,43.32-52.43
	C88.74,25.72,69.29,2.18,45.42,2.17"/>
<path class="st2" d="M45.42,106.59c-23.64,0-42.91-23.34-42.91-51.99c0-28.63,19.27-52,42.91-52s42.92,23.37,42.92,52
	C88.34,83.25,69.06,106.59,45.42,106.59"/>
<path class="st1" d="M45.42,99.2c-19.67,0-35.7-20.03-35.7-44.59c0-24.55,16.03-44.59,35.7-44.59
	c19.68,0.01,35.72,20.04,35.72,44.59C81.14,79.17,65.1,99.2,45.42,99.2"/>
<path class="st0" d="M45.42,10.46c-19.42,0-35.28,19.8-35.28,44.13s15.85,44.16,35.28,44.16c19.44,0,35.29-19.82,35.29-44.16
	S64.87,10.46,45.42,10.46"/>
<path class="st0" d="M39.72,52.92c-0.5,0.05-1.11,0.03-1.11,0.03s-0.05-0.38-0.43-0.68s-0.9,0.76-1.11,0.92
	c-0.21,0.16-0.68,0.22-1.06,1.19c-0.38,0.98,0.05,0.95,0.05,0.95c-0.22,1.44,0.38,1.79,0.68,1.87s0.14-0.57,0.14-0.57
	c0.19-0.06,0.27-0.38,0.27-0.38c0.62-0.19,0.73-0.54,0.73-0.54s0.46,0,1-0.16c0.55-0.16,0.87-0.73,0.87-0.73s0.32-0.22,0.79-0.43
	c0,0,0.01,0,0.02,0c2.33,0.61,0.32-1.74,0.24-2.05C40.78,52.34,39.79,53.06,39.72,52.92 M76.32,49.26c0,0-1.54,0.05-2.74-0.11
	c-1.2-0.16-7.9-2.85-8.06-3.09c-0.16-0.25,0.25-0.32,0.25-0.6c0-0.27-0.63-0.19-1.36-0.19s-3.42-1.25-4.34-1.52
	c-0.92-0.28-1.33-0.73-2.55-0.35c-1.22,0.38-7.27,0.73-7.57,0.73s-1.3,0.3-1.79,1.11c-0.64,1.07-3.28,3.72-3.58,3.8
	s-1.11-0.46-1.25-0.68s-0.52-1.3-0.9-2.99s-1-2.2-1.36-2.5c-0.35-0.29-5.38-4.99-6.05-5.58c-0.68-0.6-1.33-0.49-1.33-0.49
	l-6.13,0.14c0,0-6.65-0.03-7-0.03s-2.01-0.38-2.01-0.38c-0.35,0.03-0.19,0.27,0.38,0.92s2.71,0.84,3.72,0.7
	c1-0.14,0.22,0.25,0.22,0.25c-1,0.41-2.31,0-2.77,0s-0.05,0.32,0.7,0.84c0.76,0.52,2.8,0.49,4.26,0.35
	c1.47-0.14,0.35,0.14,0.35,0.14c-1.22,0.43-2.5,0.38-3.59,0.3c-1.09-0.08,0.49,1.09,1.52,1.25s2.61-0.76,3.04-0.49
	c0.43,0.28-1,0.52-1.87,0.73c-0.87,0.22-1.44,0.41-0.08,0.92c1.36,0.52,2.63-0.27,3.36-0.35s0.25,0.28,0.25,0.28
	c-1.3,0.46-0.79,0-1.63,0.41s0.92,0.73,1.44,0.68c0.52-0.05,2.14-0.46,2.34-0.52c0.19-0.05,0.57-0.25,0.19,0.22
	c-0.38,0.46-1.63,0.65-1.63,0.65s-1.51,0.42-0.38,0.9c1.28,0.53,1.66,0.05,2.01-0.16c0.5-0.3,0.81-0.19,0.49,0
	c-0.33,0.19-0.33,0.33-0.33,0.33c1.17,0.76,2.31-0.25,2.82-0.35c0.52-0.11,0.14,0.08-0.14,0.52c-0.27,0.43,1.77,0.27,1.77,0.27
	c0.65,0.82,1.17,0.55,1.17,0.55s-0.55,0.62-0.11,1.39c0.43,0.76,0.73,0.05,1.06-0.25c0.32-0.3,0.19,0.05,0.14,0.32
	c-0.05,0.28-0.22,0.6,0.22,1.3c0.55,0.89,0.57,0,0.57-0.32s0.46-0.98,0.6-0.98s-0.11,0.68-0.11,1.36s1.39,0.9,1.52,0.9
	s0.3-2.04,0.3-2.04s0.02,1.9,0.41,2.33c0.38,0.43,0.84,0.41,0.84,0.57s-0.38,0.38-0.62,0.54c-0.24,0.16-0.54,0.16-0.87,0.3
	s-0.95,0.62-0.73,1c0.13,0.21,0.26,0.47,0.36,0.65c0.36-0.04,0.66-0.11,0.65-0.24l1,1.6c0,0-0.37-0.11-0.82,0.1
	c0.29,0.38,0.62,0.7,0.82,0.77c0.71-0.2,0.76,0.16,1.93,0.25c1.16,0.08,1.19-0.46,1.87-0.52c0.68-0.05,0.52-0.3,0.98-0.3
	c0.46,0,0.27,0.35-0.05,0.82c-0.33,0.46-0.7,0.84-0.35,1.09s0.35-0.08,0.55-0.22c0.19-0.14,0.19,0.43,0.76,0.7
	c0.49,0.24,0.57-0.65,0.68-1.03s0.3-0.14,0.3-0.14c0.03,1.22,0,1.2,0.38,1.22c0.38,0.02,0.57-0.7,0.57-1s0.08-0.54,0.16-0.22
	c0.08,0.33,1.14,1.52,1.57,1.57s0.11-0.43,0-0.73s-0.05-0.55-0.05-0.55s1.13,1.18,1.49,1.06c0.82-0.27,0.65-0.32,0.55-0.97
	c-0.11-0.65-2.5-3.99-2.63-4.23c-0.14-0.25-0.19-0.41,0.35-0.22s0.38-0.14,0.6-0.57s0.9-0.92,1.06-0.92c0.16,0,1.44,0.95,2.34,1.57
	c0.9,0.62,1.49,0.82,2.36,0.65s-0.14-0.38-0.33-0.81s0.46-0.24,0.46-0.24s1.2,0.87,1.44,1c0.24,0.14,1.33,0.19,0.9-0.32
	c-0.43-0.52-0.3-0.7-0.3-1s1.03,0.65,1.49,1.06c0.46,0.41,1.5,0.11,1.5,0.11c1.74,2.39,4.61,3.39,5.37,3.42
	c0.76,0.02,0.22-0.41-0.05-0.55c-0.28-0.14-0.65-0.46-0.92-0.87s-0.05-0.38,0.24-0.22c0.3,0.16,1.98,0.73,2.8,0.76
	c0.81,0.03,0.19-0.38-0.3-0.9c-0.49-0.52-1.98-1.52-2.36-1.87c-0.38-0.35,0.16-0.38,0.32-0.24c0.16,0.14,1.25,0.43,2.44,1.68
	c1.2,1.25,2.09,0.9,2.22,0.65c0.2-0.36-0.38-1.06-1.3-1.95s-2.88-1.68-3.53-2.17s0.55-0.05,0.55-0.05c2.2,1.25,4.72,2.09,5.48,2.17
	c0.76,0.08,2.25-0.02,2.47-0.7c0.21-0.68-0.82-0.22-2.17-0.55c-1.02-0.25-3.07-0.92-3.69-1.39c-0.63-0.46,0.35-0.14,0.35-0.14
	c3.96,1.68,5.56,1.17,5.56,1.17C77.54,49.89,76.32,49.26,76.32,49.26"/>
<path d="M39.46,54.32L39.46,54.32c-0.03,0.43-0.25,0.54-0.49,0.6C38.73,54.97,38.1,55,38.1,55s0.41-0.3,0.22-0.65
	c0,0,0.49-0.54,0.14-0.49s-0.87,0.6-0.87,0.7c0,0.11,0.08,0.38-0.11,0.33c-0.19-0.05-0.36-0.28,0.27-0.84
	c0.57-0.52,1.68-0.65,1.68-0.65s0.35-0.11,0.35,0.19C39.78,53.88,39.48,53.88,39.46,54.32 M36.96,55.76L36.96,55.76
	c-0.22,0.25-0.25,0.62-0.35,0.43C36.5,56,36.39,56,36.5,55.29c0,0,0.46,0.06,0.46-0.08s0.03,0.14,0.3,0.14
	C37.53,55.34,37.17,55.51,36.96,55.76 M36.47,54.13L36.47,54.13c0.27-0.6,0.68-0.65,0.87-0.76s0.43-0.41,0.55-0.76
	c0,0,0.35-0.16,0.35,0.35s-0.33,0.73-0.73,0.98c-0.41,0.24-0.43,0.92-0.76,0.92C36.42,54.86,36.2,54.73,36.47,54.13 M41.46,53.07
	L41.46,53.07c-0.44-0.78-1.03-0.46-1.03-0.46c0.03,0.32-1.76,0.28-1.76,0.28s-0.06-0.38-0.43-0.68c-0.38-0.3-0.9,0.76-1.11,0.92
	c-0.22,0.16-0.68,0.22-1.06,1.2c-0.38,0.97,0.05,0.95,0.05,0.95c-0.22,1.44,0.38,1.79,0.68,1.87s0.14-0.57,0.14-0.57
	c0.19-0.05,0.27-0.38,0.27-0.38c0.62-0.19,0.73-0.55,0.73-0.55s0.46,0,1-0.16s0.87-0.73,0.87-0.73s0.33-0.22,0.79-0.43
	c0.46-0.22,0.84-0.11,0.84-0.11S41.71,53.5,41.46,53.07 M63.74,46.83L63.74,46.83c-0.38,0.16-0.41,0.11-1.41,0.14
	c-1,0.02-1.6-0.57-1.6-0.57c0.68,0.3,1.54,0.02,1.95-0.19c0.41-0.22,0.3,0,1.3,0.05s1.09,0.16,1.09,0.33
	C65.07,46.75,64.12,46.66,63.74,46.83 M60.46,47.51L60.46,47.51c-0.82,0.16-1.09-0.14-1.41-0.35c-0.33-0.22-0.33,0.02-0.33,0.02
	s1,0.62-0.43,0.62c-1,0-2.01-0.7-2.01-0.7s0.22,0.38-0.27,0.49c-0.78,0.17-1.39-0.38-1.39-0.38s-0.19,0.49-0.7,0.49
	c-1.03,0-1.82-1.06-1.82-1.06c-0.16-0.3,0.22-0.16,0.22-0.16s1.09,0.62,1.66,0.68c0.57,0.05,0.16-0.33,0.16-0.33
	s-0.62-0.43-0.97-0.65s0.08-0.27,0.08-0.27s0.92,0.62,1.77,0.97c0.84,0.35,0.81,0.03,0.81,0.03s-0.92-0.73-1.14-0.95
	c-0.22-0.22-0.14-0.43,0.08-0.19s2.25,1.33,2.61,1.44c0.35,0.11,0.7-0.05,0.27-0.27s-1.09-0.92-1.33-1.22
	c-0.25-0.3,0.41-0.08,0.41-0.08c0.7,0.57,1.84,1.14,2.58,1.22c0.73,0.08,0.33-0.35,0.33-0.35s-1-0.46-1.2-0.82
	c-0.19-0.35,0.57-0.08,0.57-0.08s1.39,1,1.84,1.33C61.3,47.26,61.27,47.34,60.46,47.51 M50.45,45.71L50.45,45.71
	c-1.41,0.19-1.95,0.7-2.25,1.27s-1.49,2.22-2.17,2.74s-1.09,1.14-1.2,1.52s-0.3,0.76-0.43,0.32c-0.14-0.43-1.11-0.49-1.11-0.49
	c-0.22-0.73,0.57-0.14,3.15-2.55c1.08-1.01,1.63-2.2,2.06-2.88s1.76-0.84,3.47-0.84s4.56-0.57,5.51-0.57c0.95,0,0,0.25,0,0.25
	S51.86,45.52,50.45,45.71 M42.49,48.11L42.49,48.11c-0.27,0.32-0.79,0-1.27-0.82c-0.49-0.81-1.17-2.61-1.25-2.91
	s-0.11-0.3-0.51-0.68c-0.41-0.38-1.36-1.22-1.55-2.01c0,0-0.14-0.92,0.27-0.33c0.41,0.6,1.55,1.66,2.09,1.9
	c0.55,0.24,0.73,0.81,0.76,1.33c0.03,0.52,0.7,2.2,1.03,2.41C42.39,47.23,42.77,47.78,42.49,48.11 M35.82,43.65L35.82,43.65
	c-1.6-0.27-0.95-1.11-0.95-1.11s-0.54,0.11-1-0.33c-0.39-0.37,0.19-0.84,0.19-0.84s-1.47-0.02-1.3-0.92
	c0.16-0.9,2.31-0.32,2.31-0.32c0.3,0.27-0.08,0.14-0.7,0.16c-0.62,0.03-0.16,0.54-0.16,0.54c1.17,0.62,1.71,0.7,1.71,0.7
	c-1.41,0.02-1.03,0.65-0.11,0.81c0.92,0.16,0.65,0.22,0.65,0.22c-2.25,0.33,1.39,0.95,1.52,1.09C38.1,43.79,37.42,43.92,35.82,43.65
	 M76.39,49.19c0,0-1.54,0.05-2.74-0.11c-1.2-0.16-7.9-2.85-8.06-3.09c-0.16-0.24,0.25-0.32,0.25-0.6c0-0.27-0.62-0.19-1.36-0.19
	c-0.73,0-3.42-1.25-4.34-1.52s-1.33-0.73-2.55-0.35c-1.22,0.38-7.27,0.73-7.57,0.73s-1.3,0.3-1.8,1.11
	c-0.64,1.06-3.28,3.72-3.58,3.8s-1.11-0.46-1.25-0.68s-0.52-1.3-0.9-2.98c-0.38-1.68-1-2.2-1.36-2.5c-0.35-0.3-5.37-4.99-6.05-5.59
	s-1.33-0.49-1.33-0.49l-5.21,0.02c-1.03,0.7,2.09,0.73,2.58,0.73s0.22,0.3,0.22,0.3c-2.44,0.25,0.46,0.62,1.3,0.68
	c0.84,0.05,0.38,0.25,0.38,0.25c-1.06,0.02-1.49,0.62-0.65,0.76s0.6,0.32,0.6,0.32c-2.33,0.19-2.04-0.95-2.04-0.95
	c-2.11,0.4-2.08-0.93-2.08-0.93c-2.52-0.25-1.22-1.06-1.22-1.06s-6.65-0.03-7-0.03s-2.01-0.38-2.01-0.38
	c-0.35,0.02-0.19,0.27,0.38,0.92s2.71,0.84,3.72,0.7c1-0.14,0.22,0.25,0.22,0.25c-1,0.41-2.31,0-2.77,0s-0.05,0.32,0.7,0.84
	c0.76,0.51,2.79,0.49,4.26,0.35s0.35,0.14,0.35,0.14c-1.22,0.43-2.5,0.38-3.59,0.3c-1.09-0.08,0.49,1.09,1.52,1.25
	s2.61-0.76,3.04-0.49c0.43,0.27-1,0.52-1.87,0.73c-0.87,0.22-1.44,0.41-0.08,0.92c1.36,0.52,2.63-0.28,3.36-0.35
	c0.73-0.08,0.25,0.27,0.25,0.27c-1.3,0.46-0.79,0-1.63,0.41s0.92,0.73,1.44,0.68s2.14-0.46,2.33-0.52c0.19-0.05,0.57-0.25,0.19,0.22
	c-0.38,0.46-1.63,0.65-1.63,0.65s-1.51,0.42-0.38,0.9c1.28,0.53,1.66,0.05,2.01-0.16c0.5-0.3,0.82-0.19,0.49,0
	c-0.32,0.19-0.32,0.32-0.32,0.32c1.17,0.76,2.31-0.24,2.82-0.35c0.52-0.11,0.14,0.08-0.14,0.52c-0.27,0.43,1.77,0.27,1.77,0.27
	c0.65,0.82,1.17,0.54,1.17,0.54s-0.54,0.62-0.11,1.39c0.43,0.76,0.73,0.05,1.06-0.25c0.33-0.3,0.19,0.05,0.14,0.32
	s-0.22,0.6,0.22,1.3c0.55,0.89,0.57,0,0.57-0.32s0.46-0.98,0.6-0.98s-0.11,0.68-0.11,1.36s1.39,0.9,1.52,0.9s0.3-2.04,0.3-2.04
	s0.02,1.9,0.41,2.34s0.84,0.41,0.84,0.57s-0.38,0.38-0.63,0.54c-0.24,0.16-0.54,0.16-0.87,0.3c-0.32,0.14-0.95,0.62-0.73,1
	c0.22,0.38,0.32-0.03,0.32-0.03c0.05-0.68,1.17-0.76,1.6-0.62s0.11-0.51,0.11-0.51s0.87-1,1.49-0.87c0.62,0.14-0.05,0.43-0.65,0.79
	c-0.6,0.35-0.19,0.68-0.08,0.82s0.76,0.43,0.46,1.11s-0.08,0.84,0,1.3s-0.7,0.57-1,0.62s-0.43,0.33-0.25,0.28
	c0.71-0.2,0.76,0.16,1.93,0.24c1.17,0.08,1.2-0.46,1.87-0.52c0.68-0.05,0.51-0.3,0.97-0.3s0.27,0.35-0.05,0.81s-0.7,0.84-0.35,1.09
	c0.35,0.24,0.35-0.08,0.54-0.22s0.19,0.43,0.76,0.7c0.49,0.24,0.57-0.65,0.68-1.03s0.3-0.14,0.3-0.14c0.02,1.22,0,1.2,0.38,1.22
	c0.38,0.03,0.57-0.7,0.57-1s0.08-0.54,0.16-0.22s1.14,1.52,1.57,1.57s0.11-0.43,0-0.73s-0.05-0.55-0.05-0.55s1.13,1.18,1.49,1.06
	c0.82-0.27,0.65-0.32,0.55-0.98c-0.11-0.65-2.5-3.99-2.63-4.23c-0.14-0.24-0.19-0.41,0.35-0.22c0.55,0.19,0.38-0.14,0.6-0.57
	s0.9-0.92,1.06-0.92c0.16,0,1.44,0.95,2.33,1.57c0.9,0.62,1.5,0.81,2.36,0.65c0.87-0.16-0.14-0.38-0.32-0.82
	c-0.19-0.43,0.46-0.25,0.46-0.25s1.2,0.87,1.44,1c0.25,0.14,1.33,0.19,0.9-0.32c-0.43-0.52-0.3-0.7-0.3-1s1.03,0.65,1.49,1.06
	c0.46,0.41,1.5,0.11,1.5,0.11c1.73,2.39,4.61,3.39,5.37,3.42s0.22-0.41-0.05-0.54c-0.27-0.14-0.65-0.46-0.92-0.87
	s-0.05-0.38,0.25-0.22c0.3,0.16,1.98,0.73,2.79,0.76c0.82,0.02,0.19-0.38-0.3-0.9c-0.49-0.52-1.98-1.52-2.36-1.87
	c-0.38-0.35,0.16-0.38,0.33-0.25c0.16,0.14,1.25,0.43,2.44,1.68c1.2,1.25,2.09,0.89,2.22,0.65c0.2-0.36-0.38-1.06-1.3-1.95
	s-2.88-1.68-3.53-2.17s0.54-0.05,0.54-0.05c2.2,1.25,4.72,2.09,5.48,2.17c0.76,0.08,2.25-0.02,2.47-0.7s-0.81-0.22-2.17-0.54
	c-1.02-0.25-3.06-0.92-3.69-1.39c-0.62-0.46,0.35-0.14,0.35-0.14c3.96,1.68,5.56,1.17,5.56,1.17
	C77.61,49.81,76.39,49.19,76.39,49.19"/>
<path class="st3" d="M60.9,62.86l-0.41-0.26l-1.66,2.49l0.38,0.26L60.9,62.86z M19.84,56.33l0.36,0.25l0.79-1.15l-0.38-0.26
	L19.84,56.33z M23.85,60.04l0.36,0.26l1.13-1.66l-0.38-0.26L23.85,60.04z M21.67,58.45l1.17-1.76l0.38,0.26l-1.18,1.76L21.67,58.45z
	 M17.54,54.96l0.36,0.25l1.31-1.94l-0.38-0.26L17.54,54.96z M21,57.81l0.37,0.25l1.14-1.65l-0.38-0.26L21,57.81z M16.49,53.28
	l0.36,0.26l1.13-1.67l-0.38-0.26L16.49,53.28z M15.37,53.36L16.95,51l0.38,0.26l-1.6,2.35L15.37,53.36z M15.61,51.42l0.69-1.02
	l0.38,0.26l-0.7,1.02L15.61,51.42z M27.14,61.56l0.36,0.25l0.79-1.16l-0.38-0.26L27.14,61.56z M24.85,60.12l0.8-1.16l0.38,0.26
	l-0.78,1.16L24.85,60.12z M22.51,58.76l0.4,0.28l0.86-1.32l-0.38-0.26L22.51,58.76z M19.14,55.77l0.79-1.17l0.36,0.26l-0.79,1.17
	L19.14,55.77z M17.08,54.02l0.8-1.16l0.38,0.26l-0.81,1.16L17.08,54.02z M14.85,50.95l0.36,0.25L16,50.03l-0.38-0.25L14.85,50.95z
	 M28.7,62.43l0.36,0.25l0.66-0.94l-0.38-0.26L28.7,62.43z M25.74,60.45l0.36,0.25l0.57-0.85l-0.38-0.26L25.74,60.45z M28,61.88
	l0.55-0.84l0.38,0.26l-0.57,0.84L28,61.88z M30.76,64.2l0.41-0.6l0.38,0.26l-0.42,0.6L30.76,64.2z M30.09,63.62l0.36,0.25L31,63.04
	l-0.38-0.26L30.09,63.62z M29.37,63.05l0.62-0.91l0.38,0.26l-0.64,0.91L29.37,63.05z M26.47,60.96l0.54-0.83l0.38,0.26l-0.55,0.83
	L26.47,60.96z M23.5,58.95l0.57-0.84l0.38,0.26l-0.59,0.84L23.5,58.95z M20.64,56.77l0.54-0.83l0.38,0.26l-0.55,0.83L20.64,56.77z
	 M18.09,55.73l0.55-0.83l0.38,0.26l-0.57,0.83L18.09,55.73z M19.02,54.35l0.55-0.83l0.38,0.26l-0.56,0.83L19.02,54.35z M14.35,50.05
	l0.54-0.83l0.38,0.26l-0.55,0.83L14.35,50.05z M63.14,62.74l-0.38-0.24l-2.85,4.21l0.38,0.26L63.14,62.74z M61.95,62.89l-0.38-0.24
	l-1.13,1.71l0.38,0.26L61.95,62.89z M60.52,65.03l-1.68,2.49l-0.38-0.26l1.68-2.48L60.52,65.03z M63.38,63.98l-1.66,2.5l-0.38-0.26
	L63,63.73L63.38,63.98z M72,40.73l0.56-0.81l0.36,0.27L72.37,41L72,40.73z M72.49,41.57l1.15-1.7l0.39,0.28l-1.16,1.68L72.49,41.57z
	 M72.82,42.76l0.36,0.25l1.83-2.69l-0.38-0.26L72.82,42.76z M73.09,43.96l0.39,0.26l1.5-2.21l-0.39-0.28L73.09,43.96z M74.3,43.79
	l0.55-0.83l0.39,0.27l-0.55,0.81L74.3,43.79z M71.02,44.58l0.77-1.15l0.39,0.28l-0.77,1.13L71.02,44.58z M69.89,44.68l0.55-0.83
	l0.39,0.27l-0.55,0.81L69.89,44.68z M53.68,64.71l-0.38-0.24l-2.21,3.3l0.38,0.26L53.68,64.71z M50.86,64.11l-0.38-0.24l-2.53,3.74
	l0.38,0.26L50.86,64.11z M52.51,63.25l-0.38-0.24l-2.85,4.21l0.38,0.26L52.51,63.25z M53.85,66.09l-1.18,1.71l-0.35-0.26l1.14-1.69
	L53.85,66.09z M53.01,64.13l-1.18,1.71l-0.38-0.26l1.17-1.69L53.01,64.13z M48.57,65.9l-1.18,1.71l-0.38-0.26l1.17-1.69L48.57,65.9z
	 M51.48,66.35l-0.71,1.04l-0.35-0.24l0.7-1.06L51.48,66.35z M35.18,49.65l-0.38-0.24l-0.46,0.66l0.38,0.26L35.18,49.65z
	 M26.67,50.99l-0.39-0.24l-0.69,1.01l0.38,0.25L26.67,50.99z M32.78,48.38l-0.36-0.24l-4.44,6.59L28.34,55L32.78,48.38z
	 M30.92,49.55l-0.35-0.25l-3.35,4.95l0.36,0.28L30.92,49.55z M34.08,48.09l-0.38-0.28l-2.55,3.78l0.37,0.28L34.08,48.09z
	 M29.26,50.42l-0.37-0.26l-2.36,3.47l0.41,0.28L29.26,50.42z M30.86,52.87l-0.4-0.27l-1.76,2.6l0.41,0.27L30.86,52.87z M27.46,51.42
	l-1.1,1.63l-0.37-0.26l1.09-1.62L27.46,51.42z M34.55,48.96l-1.34,1.96l-0.37-0.26l1.32-1.97L34.55,48.96z M31.74,56.38l-0.38-0.24
	l-0.69,1l0.38,0.26L31.74,56.38z M33.69,55.06l-0.38-0.24l-1.83,2.7l0.38,0.26L33.69,55.06z M46.83,58.86l-0.77,1.11l-0.38-0.26
	l0.77-1.11L46.83,58.86z M45.67,58.94l-0.78,1.11l-0.38-0.26l0.77-1.11L45.67,58.94z M42.07,59.48l-0.39-0.24l-0.5,0.73l0.38,0.26
	L42.07,59.48z M39,62.42l-0.38-0.24l-0.52,0.75l0.38,0.25L39,62.42z M35.57,61.13l-0.51,0.74l-0.38-0.26l0.51-0.72L35.57,61.13z
	 M39.12,59.04l-0.38-0.24l-2.75,4.06l0.38,0.26L39.12,59.04z M38.29,58.65l-2.75,4.07l-0.38-0.26l2.75-4.06L38.29,58.65z
	 M45.2,61.24l-3.49,5.15l-0.37-0.24L44.82,61L45.2,61.24z M44,61.45l-0.38-0.24l-3.9,5.75l0.38,0.26L44,61.45z M44.52,59.04
	l-0.38-0.24l-2.12,3.12l0.38,0.26L44.52,59.04z M46.31,61.2l-2.55,3.76l-0.38-0.26l2.55-3.75L46.31,61.2z M41.96,62.84l-1.9,2.83
	l-0.38-0.26l1.9-2.82L41.96,62.84z M43.01,59.68l-1.91,2.83l-0.38-0.26l1.91-2.82L43.01,59.68z M47.17,61.5l-0.39-0.24l-1.5,2.25
	l0.38,0.26L47.17,61.5z M41.34,60.54l-0.38-0.24l-1.5,2.25l0.38,0.26L41.34,60.54z M38.85,61.01l-1.51,2.26l-0.38-0.26l1.5-2.25
	L38.85,61.01z M36.85,59.2l-1.15,1.71l-0.38-0.26l1.15-1.7L36.85,59.2z M35.58,59.42l-0.38-0.24l-1.04,1.56L34.54,61L35.58,59.42z
	 M50.42,61.53l-0.38-0.24l-0.98,1.46l0.38,0.26L50.42,61.53z M51.4,61.69l-0.71,1.04l-0.38-0.26l0.7-1.03L51.4,61.69z M49.05,61.98
	l-0.38-0.24l-0.75,1.11l0.38,0.26L49.05,61.98z M48.26,61.52l-1.06,1.57l-0.38-0.26l1.06-1.56L48.26,61.52z M33.82,58.01l-0.38-0.24
	l-0.74,1.11l0.35,0.26L33.82,58.01z M40.47,60.24l-0.77,1.13l-0.35-0.26L40.09,60L40.47,60.24z M34.78,59.05l-0.77,1.13l-0.38-0.26
	l0.77-1.11L34.78,59.05z M33.61,56.78l-1.11,1.64l-0.38-0.26l1.11-1.62L33.61,56.78z M31.27,55.44l-1.11,1.63l-0.38-0.26l1.11-1.62
	L31.27,55.44z M23.07,45.15l0.38,0.24l0.69-1l-0.38-0.26L23.07,45.15z M21.96,45.2l0.85-1.26l0.38,0.26l-0.84,1.25L21.96,45.2z
	 M20.79,45.3l0.39,0.24l1.18-1.76l-0.38-0.26L20.79,45.3z M17.99,46.23l0.38,0.24l1.55-2.27l-0.38-0.26L17.99,46.23z M17.22,45.76
	l1.28-1.88l0.38,0.26l-1.27,1.87L17.22,45.76z M16.45,45.29l0.38,0.24l1.27-1.87l-0.38-0.26L16.45,45.29z M15.02,42.64l0.38,0.24
	l1.67-2.49l-0.38-0.26L15.02,42.64z M16.25,42.39l0.37,0.26l1.97-2.94l-0.38-0.26L16.25,42.39z M19.67,45.32l1.49-2.21l0.4,0.28
	l-1.49,2.21L19.67,45.32z M18.61,42.03l0.4,0.27l0.77-1.11l-0.41-0.28L18.61,42.03z M15.72,44.82l0.78-1.17l0.38,0.26l-0.79,1.17
	L15.72,44.82z M14.61,41.66l1.01-1.54L16,40.38l-1.03,1.53L14.61,41.66z M17.37,42.35L18.95,40l0.38,0.26l-1.6,2.35L17.37,42.35z
	 M31.54,47.03l-0.47,0.68l-0.38-0.26l0.46-0.66L31.54,47.03z M30.42,47.03l-0.38-0.24l-0.69,1.01l0.38,0.26L30.42,47.03z
	 M25.29,49.88L24.6,50.9l-0.38-0.26l0.69-1.01L25.29,49.88z M20.89,46.79l-0.38-0.24l-0.69,1.01l0.38,0.26L20.89,46.79z
	 M21.86,46.92l-0.85,1.26l-0.38-0.26l0.84-1.25L21.86,46.92z M23.03,46.82l-0.38-0.24l-1.19,1.76l0.38,0.26L23.03,46.82z
	 M27.71,46.25l-1.82,2.7l-0.36-0.25l1.81-2.7L27.71,46.25z M26.53,46.42l-0.36-0.26l-2.53,3.74l0.38,0.26L26.53,46.42z M25.57,46.24
	l-0.36-0.26l-2.19,3.26l0.37,0.27L25.57,46.24z M28.61,46.52l-0.37-0.26l-1.49,2.21l0.38,0.26L28.61,46.52z M29.71,46.49l-1.49,2.21
	l-0.38-0.26l1.49-2.2L29.71,46.49z M24.13,46.77l-1.5,2.22l-0.36-0.26l1.49-2.2L24.13,46.77z M23.03,67.01l0.36,0.25l1.13-1.66
	l-0.38-0.26L23.03,67.01z M18.11,67.87l0.36,0.25l2.54-3.71l-0.38-0.26L18.11,67.87z M19.79,66.99l1.53-2.25l0.38,0.25l-1.54,2.25
	L19.79,66.99z M20.51,67.52l0.36,0.26l1.54-2.25l-0.37-0.26L20.51,67.52z M14.62,61.82l0.36,0.25l1.47-2.16l-0.38-0.26L14.62,61.82z
	 M15.28,62.46l1.45-2.16l0.38,0.26l-1.47,2.16L15.28,62.46z M15.92,63.08l0.36,0.26l1.67-2.45l-0.38-0.26L15.92,63.08z M15.93,64.67
	l0.36,0.25l1.69-2.48l-0.38-0.26L15.93,64.67z M16.89,64.86l0.36,0.25l1.67-2.48l-0.38-0.26L16.89,64.86z M16.95,66.36l2.06-3.07
	l0.41,0.28l-2.08,3.06L16.95,66.36z M21.97,66.95l1.69-2.5l0.36,0.26l-1.69,2.5L21.97,66.95z M16.88,68.11l0.87-1.27l0.38,0.26
	l-0.88,1.27L16.88,68.11z M14.78,59.98l0.6-0.94l0.38,0.26l-0.62,0.93L14.78,59.98z M24.15,66.94l0.62-0.92l0.38,0.26l-0.64,0.91
	L24.15,66.94z M40.3,41.26l0.35,0.25l1.83-2.69l-0.38-0.26L40.3,41.26z M41.94,40.41l0.56-0.82l0.37,0.26l-0.55,0.81L41.94,40.41z
	 M39.77,40.42l1.41-2.12l0.38,0.27l-1.4,2.11L39.77,40.42z M34.71,36.66l0.37,0.28l0.82-1.23l-0.38-0.26L34.71,36.66z M36.2,37.67
	l0.36,0.28l1.28-1.92l-0.38-0.26L36.2,37.67z M35.47,37.18l1.06-1.6l0.37,0.26l-1.08,1.6L35.47,37.18z M41.2,34.29l0.34,0.26
	l1.83-2.69L43,31.6L41.2,34.29z M42.74,35.23l1.82-2.7l0.38,0.26l-1.83,2.69L42.74,35.23z M40.59,33.61l0.37,0.26l1.81-2.69
	l-0.38-0.26L40.59,33.61z M37.19,32.19l0.38,0.24l1.84-2.73l-0.38-0.26L37.19,32.19z M38.12,32.42l0.37,0.26l1.85-2.75l-0.38-0.26
	L38.12,32.42z M43.39,35.86l1.02-1.52l0.36,0.27l-1,1.53L43.39,35.86z M43.81,36.84l0.72-1.11l0.36,0.28l-0.73,1.09L43.81,36.84z
	 M44.27,37.79l0.39-0.61l0.35,0.25l-0.37,0.64L44.27,37.79z M42.4,34.13l0.36,0.26l1.37-2.01l-0.38-0.26L42.4,34.13z M41.09,31.21
	l0.4,0.28l0.7-1.06l-0.4-0.28L41.09,31.21z M39.73,33.22l0.4,0.27l1.04-1.52l-0.41-0.28L39.73,33.22z M36.95,30.97l1.01-1.54
	l0.38,0.26l-1.02,1.53L36.95,30.97z M40.21,29.3l0.38,0.24l1.02-1.51l-0.38-0.26L40.21,29.3z M39.1,32.57l3.01-4.47l0.38,0.26
	l-3.03,4.46L39.1,32.57z M42.09,50.68l-0.05-0.05L42.09,50.68z"/>
<path class="st3" d="M14.12,69.23c4.39,13.97,15.39,27.26,31.44,27.26c15.91-0.13,26.95-13.4,31.17-27.26H14.12z"/>
<path class="st1" d="M61.4,90.72l-0.16-19.46l-1.39,0.1l-0.81-0.52c-6.27-1.17-13.89,2.04-13.89,2.04
	c-7.82-3.37-13.26-2.2-13.26-2.2l-0.87,0.75l-1.54-0.15l0.24,19.37l15.43,1.61l1.18,0.12L61.4,90.72z"/>
<path class="st2" d="M60.53,89.53v-17.2l-1.38-1.03l0.04,17.48L60.53,89.53z M44.5,91.42l0.63-0.47
	c-7.46-3.28-12.51-2.21-12.51-2.21l-1.5,1.18L44.5,91.42z M30.46,72.38l1.42-1.12l0.4,17.24l-1.58,1.23L30.46,72.38z M58.99,89.21
	L60.37,90l-13.42,1.41h-0.04L46.2,90.9C53.7,87.95,58.99,89.21,58.99,89.21"/>
<path class="st0" d="M44.91,73.26l0.35,17.2c-5.71-2.26-10.37-2.69-12.57-2.3l-0.07-0.11l-0.4-16.96
	C36.49,70.36,40.63,71.56,44.91,73.26 M45.58,73.26l0.27,17.33c0.5-0.21,6.52-2.86,12.85-1.88c0,0-0.11-16.13-0.13-17.59
	C56.3,70.97,51.07,70.79,45.58,73.26"/>
<path class="st1" d="M43.35,80.56l0.75,0.21v0.2l-0.75-0.21V80.56z M43.35,81.37l0.75,0.21v0.2l-0.75-0.21V81.37z"/>
<path class="st1" d="M35.44,72.6h0.91l2.06,2.52v-1.94c0-0.21-0.02-0.34-0.07-0.39c-0.06-0.07-0.16-0.11-0.29-0.11h-0.12v-0.09h1.17
	v0.09h-0.12c-0.14,0-0.24,0.04-0.3,0.13c-0.04,0.05-0.05,0.17-0.05,0.36V76h-0.09l-2.22-2.71v2.07c0,0.21,0.02,0.33,0.07,0.39
	c0.06,0.07,0.16,0.11,0.29,0.11h0.12v0.09h-1.17v-0.09h0.12c0.14,0,0.25-0.04,0.31-0.13c0.04-0.05,0.05-0.17,0.05-0.36v-2.34
	c-0.1-0.11-0.17-0.19-0.22-0.22c-0.05-0.04-0.13-0.07-0.22-0.1c-0.05-0.01-0.12-0.02-0.22-0.02L35.44,72.6L35.44,72.6z M35.39,75.87
	v0.09h-1.44v-0.09h0.12c0.14,0,0.24-0.04,0.3-0.12c0.04-0.05,0.06-0.18,0.06-0.38v-2.18c0-0.17-0.01-0.28-0.03-0.34
	c-0.01-0.04-0.05-0.08-0.1-0.11c-0.07-0.04-0.15-0.06-0.23-0.06h-0.12v-0.09h1.44v0.09h-0.12c-0.14,0-0.24,0.04-0.3,0.12
	c-0.04,0.05-0.06,0.18-0.06,0.38v2.18c0,0.17,0.01,0.28,0.03,0.34c0.02,0.04,0.05,0.08,0.11,0.11c0.07,0.04,0.14,0.06,0.23,0.06
	H35.39L35.39,75.87z"/>
<path class="st1" d="M39.28,80.96v0.09l-1.16-0.28v-0.09l0.1,0.02c0.11,0.03,0.19,0.01,0.24-0.06c0.03-0.04,0.05-0.16,0.05-0.35
	v-2.07c0-0.16-0.01-0.28-0.02-0.33c-0.01-0.04-0.04-0.08-0.08-0.12c-0.06-0.05-0.12-0.09-0.18-0.1l-0.1-0.02v-0.09l1.16,0.28v0.09
	l-0.1-0.02c-0.11-0.02-0.19,0-0.24,0.06c-0.03,0.04-0.05,0.16-0.05,0.35v2.08c0,0.16,0.01,0.27,0.02,0.33
	c0.01,0.04,0.04,0.09,0.09,0.13c0.06,0.05,0.12,0.09,0.18,0.1H39.28z"/>
<path class="st1" d="M36.45,79.67v0.42c0,0.21,0,0.3,0.04,0.37c0,0,0.24,0.12,0.29,0.16h0.01v0.09l-1.11-0.09v-0.09
	c0.08-0.01,0.16-0.06,0.22-0.14c0.03-0.04,0.04-0.17,0.04-0.36v-2.17c0-0.21-0.02-0.35-0.06-0.4c-0.06-0.08-0.15-0.13-0.28-0.14
	l-0.12-0.01v-0.09l1.17,0.14c0.28,0.03,0.51,0.09,0.68,0.17s0.3,0.2,0.42,0.36c0.11,0.16,0.2,0.33,0.19,0.54
	c-0.02,0.3-0.03,0.69-0.2,0.84s-0.32,0.34-0.49,0.37C36.89,79.7,36.72,79.7,36.45,79.67 M36.48,79.27c0.36,0.11,0.58,0.08,0.79-0.13
	c0.12-0.12,0.13-0.51,0.13-0.72c0-0.15-0.03-0.28-0.09-0.42c-0.06-0.13-0.14-0.24-0.24-0.31c-0.11-0.08-0.22-0.12-0.35-0.14
	c-0.08-0.01-0.1,0-0.23,0.01L36.48,79.27z"/>
<path class="st1" d="M35.2,77.18v1.14h-0.08c-0.02-0.22-0.07-0.4-0.13-0.54s-0.15-0.25-0.28-0.33c-0.12-0.09-0.24-0.14-0.37-0.15
	c-0.14-0.01-0.13,0.03-0.22,0.13c-0.1,0.1-0.1,0.21-0.1,0.34c0,0.1,0.03,0.14,0.09,0.23c0.09,0.13,0.29,0.26,0.61,0.49
	c0.26,0.19,0.39,0.42,0.48,0.52c0.33,0.33,0.2,1.1-0.06,1.37c-0.16,0.17-0.38,0.24-0.63,0.22c-0.08-0.01-0.15-0.02-0.23-0.04
	c-0.04-0.01-0.13-0.05-0.27-0.11s-0.22-0.1-0.26-0.1c-0.03,0-0.06,0-0.08,0.03c-0.02,0.02-0.03,0.07-0.04,0.15h-0.08V79.4h0.08
	c0.04,0.24,0.09,0.42,0.14,0.55s0.15,0.23,0.28,0.32c0.13,0.09,0.23,0.1,0.38,0.11c0.49,0.04,0.44-0.36,0.32-0.72
	c0-0.01-0.48-0.56-0.48-0.56c-0.24-0.17-0.34-0.3-0.44-0.4c-0.1-0.11-0.17-0.26-0.22-0.37c-0.05-0.12-0.08-0.25-0.08-0.38
	c0-0.24,0.08-0.43,0.23-0.59s0.35-0.23,0.59-0.21c0.15,0.01,0.3,0.07,0.47,0.17c0.08,0.04,0.14,0.07,0.16,0.07
	c0.04,0,0.06,0,0.09-0.03c0.02-0.02,0.04-0.07,0.05-0.15L35.2,77.18z"/>
<path class="st1" d="M41.31,82.6v1.13l-0.08-0.01c-0.02-0.22-0.07-0.41-0.14-0.55c-0.06-0.14-0.16-0.26-0.28-0.36
	c-0.12-0.1-0.25-0.15-0.38-0.18c-0.15-0.02-0.27,0-0.37,0.09c-0.1,0.09-0.14,0.19-0.14,0.32c0,0.1,0.03,0.2,0.09,0.29
	c0.09,0.14,0.3,0.33,0.63,0.59c0.27,0.21,0.45,0.37,0.55,0.47s0.17,0.22,0.23,0.35c0.05,0.13,0.08,0.26,0.08,0.39
	c0,0.25-0.09,0.45-0.26,0.6c-0.17,0.15-0.39,0.2-0.66,0.16c-0.08-0.01-0.16-0.04-0.24-0.06c-0.04-0.01-0.14-0.06-0.28-0.14
	c-0.14-0.07-0.23-0.12-0.26-0.12s-0.06,0-0.09,0.02c-0.02,0.02-0.03,0.07-0.04,0.14l-0.08-0.01V84.6l0.08,0.01
	c0.04,0.24,0.09,0.43,0.15,0.55s0.15,0.24,0.28,0.34s0.27,0.16,0.42,0.19c0.17,0.03,0.32,0,0.42-0.09c0.11-0.09,0.15-0.21,0.15-0.35
	c0-0.08-0.02-0.16-0.06-0.26c-0.04-0.09-0.1-0.17-0.18-0.26c-0.06-0.06-0.21-0.19-0.45-0.39c-0.25-0.2-0.42-0.36-0.53-0.47
	s-0.18-0.23-0.24-0.35s-0.08-0.25-0.08-0.39c0-0.24,0.08-0.42,0.24-0.57c0.16-0.14,0.36-0.19,0.6-0.15c0.15,0.02,0.32,0.1,0.49,0.21
	c0.08,0.05,0.14,0.08,0.17,0.09c0.04,0,0.07,0,0.09-0.02s0.04-0.07,0.06-0.14L41.31,82.6z"/>
<path class="st1" d="M38.3,82.37v-0.09l0.85,0.13v0.09l-0.09-0.01c-0.1-0.01-0.17,0.03-0.22,0.13c-0.02,0.05-0.04,0.16-0.04,0.34
	v1.31c0,0.32-0.02,0.57-0.07,0.74s-0.14,0.31-0.28,0.42s-0.33,0.14-0.57,0.11c-0.26-0.04-0.46-0.13-0.6-0.27s-0.23-0.32-0.29-0.53
	c-0.04-0.15-0.06-0.42-0.06-0.81v-1.26c0-0.2-0.02-0.33-0.06-0.4c-0.04-0.07-0.11-0.11-0.2-0.12l-0.09-0.01v-0.09l1.04,0.15v0.09
	l-0.09-0.01c-0.1-0.01-0.17,0.02-0.21,0.1c-0.03,0.05-0.04,0.17-0.04,0.35v1.4c0,0.13,0.01,0.27,0.02,0.43
	c0.02,0.16,0.05,0.29,0.09,0.39c0.04,0.1,0.11,0.18,0.19,0.25c0.09,0.07,0.19,0.12,0.31,0.14c0.15,0.02,0.3,0,0.42-0.08
	s0.21-0.18,0.26-0.31c0.04-0.14,0.07-0.38,0.07-0.72v-1.3c0-0.2-0.02-0.33-0.05-0.39c-0.05-0.08-0.12-0.12-0.21-0.14L38.3,82.37z"/>
<path class="st1" d="M36.24,81.77l0.04,0.79h-0.1c-0.02-0.14-0.04-0.24-0.08-0.3c-0.05-0.1-0.12-0.17-0.2-0.21
	c-0.09-0.04-0.2-0.07-0.34-0.07h-0.47v2.57c0,0.21,0.02,0.34,0.06,0.39c0.06,0.07,0.16,0.11,0.29,0.11h0.12v0.09h-1.43v-0.09h0.12
	c0.14,0,0.24-0.04,0.3-0.13c0.03-0.05,0.05-0.17,0.05-0.36v-2.57h-0.41c-0.16,0-0.27,0.01-0.34,0.03c-0.09,0.03-0.16,0.09-0.22,0.18
	s-0.1,0.21-0.11,0.36h-0.09l0.04-0.79L36.24,81.77L36.24,81.77z"/>
<path class="st1" d="M42.03,81.58l-0.91-0.21l-0.26-1.11l-0.22-0.01c-0.07,0-0.13-0.01-0.17-0.02c-0.02,0-0.04,0-0.06-0.01
	c-0.02,0-0.04-0.01-0.06-0.01v0.49c0,0.21,0.02,0.34,0.06,0.4c0.05,0.08,0.13,0.13,0.24,0.14l0.11,0.01v0.09l-1.22-0.18v-0.09
	l0.11,0.02c0.12,0.02,0.21-0.02,0.26-0.1c0.03-0.05,0.04-0.16,0.04-0.35v-2.13c0-0.21-0.02-0.34-0.06-0.4
	c-0.05-0.08-0.14-0.13-0.24-0.14l-0.11-0.01v-0.09l1.04,0.15c0.3,0.04,0.53,0.11,0.67,0.17c0.14,0.07,0.27,0.18,0.36,0.34
	c0.1,0.15,0.15,0.32,0.15,0.51c0,0.2,0.05,0.55-0.06,0.69c-0.11,0.13-0.4,0.49-0.64,0.51l0.42,0.27c0.21,0.14,0.23,0.79,0.33,0.87
	c0.1,0.09,0.07,0.06,0.23,0.1L42.03,81.58L42.03,81.58z M40.35,80.06c0.02,0,0.05,0.01,0.07,0.01s0.03,0.01,0.05,0.01
	c0.27,0.04,0.47,0,0.61-0.12s0.21-0.74,0.21-0.95s-0.05-0.38-0.16-0.53s-0.26-0.23-0.44-0.26c-0.08-0.01-0.19-0.01-0.33,0
	L40.35,80.06L40.35,80.06z"/>
<path class="st1" d="M43.15,81.8v0.09l-1.16-0.28v-0.09l0.1,0.02c0.11,0.03,0.19,0.01,0.25-0.05c0.03-0.04,0.05-0.16,0.05-0.34
	v-2.03c0-0.16-0.01-0.27-0.02-0.32c-0.01-0.04-0.04-0.08-0.08-0.12c-0.06-0.05-0.12-0.08-0.18-0.1l-0.1-0.02v-0.09l1.16,0.28v0.09
	l-0.1-0.03c-0.11-0.02-0.19,0-0.24,0.05c-0.03,0.04-0.05,0.16-0.05,0.34v2.03c0,0.16,0.01,0.27,0.02,0.32
	c0.01,0.04,0.04,0.08,0.08,0.12c0.06,0.05,0.12,0.09,0.18,0.1L43.15,81.8z"/>
<path class="st1" d="M52.99,77.34c0.38-0.08,0.71,0.01,1.02,0.28c0.3,0.27,0.47,0.66,0.51,1.15c0.04,0.51-0.06,0.97-0.32,1.37
	c-0.25,0.4-0.57,0.64-0.97,0.73s-0.75,0-1.04-0.27c-0.3-0.27-0.47-0.67-0.51-1.19c-0.04-0.54,0.08-1,0.37-1.41
	C52.3,77.65,52.61,77.43,52.99,77.34 M52.96,77.53c-0.26,0.06-0.46,0.21-0.6,0.47c-0.17,0.32-0.24,0.75-0.2,1.28
	c0.04,0.55,0.18,0.95,0.41,1.2c0.17,0.19,0.39,0.26,0.64,0.2c0.28-0.06,0.49-0.24,0.64-0.52c0.16-0.28,0.22-0.69,0.17-1.23
	c-0.04-0.57-0.18-0.98-0.4-1.22C53.47,77.53,53.24,77.47,52.96,77.53"/>
<path class="st1" d="M51.32,81.07v0.09l-1.42,0.28v-0.09l0.12-0.02c0.14-0.02,0.24-0.09,0.3-0.18c0.04-0.06,0.06-0.19,0.06-0.39
	v-2.18c0-0.17-0.01-0.28-0.03-0.33c-0.01-0.04-0.05-0.07-0.1-0.09c-0.07-0.02-0.15-0.03-0.23-0.01l-0.12,0.02v-0.09l1.42-0.28v0.09
	l-0.12,0.02c-0.14,0.02-0.24,0.09-0.3,0.18c-0.04,0.06-0.06,0.19-0.06,0.39v2.18c0,0.17,0.01,0.28,0.03,0.33
	c0.01,0.04,0.05,0.07,0.11,0.09c0.07,0.02,0.14,0.03,0.22,0.02L51.32,81.07z"/>
<path class="st1" d="M49.07,78.14l0.07,1.04l-0.07,0.02c-0.07-0.25-0.17-0.36-0.28-0.46c-0.45-0.42-1.02-0.02-1.26,0.47
	c-0.15,0.32-0.24,0.68-0.24,1.08c0,0.32,0.05,0.6,0.15,0.84c0.11,0.24,0.24,0.41,0.41,0.49s0.34,0.11,0.52,0.07
	c0.11-0.02,0.2-0.06,0.3-0.12s0.19-0.13,0.28-0.2v-0.66c0-0.17-0.01-0.28-0.03-0.32c-0.02-0.05-0.05-0.08-0.1-0.1
	c-0.04-0.02-0.13-0.01-0.24,0.01v-0.09l1.09-0.25v0.09l-0.05,0.01c-0.11,0.02-0.18,0.09-0.22,0.18c-0.02,0.07-0.04,0.19-0.04,0.37
	v0.71c-0.16,0.14-0.32,0.25-0.47,0.33c-0.15,0.09-0.33,0.15-0.52,0.19c-0.55,0.13-0.96,0.01-1.25-0.34
	c-0.21-0.27-0.32-0.6-0.32-1.01c0-0.29,0.06-0.59,0.18-0.89c0.14-0.36,0.34-0.65,0.58-0.87c0.21-0.19,0.45-0.32,0.73-0.38
	c0.22-0.05,0.25,0,0.43,0.03c0.08,0.02,0.13,0.02,0.15,0.02c0.02,0,0.05-0.02,0.07-0.06c0.02-0.03,0.03-0.09,0.03-0.18L49.07,78.14z
	"/>
<path class="st1" d="M57.25,75.59v0.09l-1.32,0.06V75.6c0.24-0.15,0.32-0.1,0.32-0.51v-2.17c0-0.17-0.01-0.28-0.03-0.34
	c-0.02-0.04-0.05-0.08-0.11-0.11c-0.08-0.04-0.15-0.06-0.24-0.06h-0.13v-0.09l1.5-0.01v0.09h-0.13c-0.14,0-0.25,0.04-0.31,0.13
	c-0.04,0.05-0.06,0.18-0.06,0.39v2.17c0,0.17,0.01,0.28,0.03,0.34c0.01,0.04,0.05,0.08,0.11,0.11c0.07,0.04,0.15,0.06,0.24,0.06
	L57.25,75.59z"/>
<path class="st1" d="M53.72,74.3l-0.69-0.86l-0.31,1.84c-0.03,0.2-0.09,0.41-0.06,0.45c0.05,0.07,0.22,0.07,0.22,0.07l0.03,0.17
	l-0.75,0.12V75.8h0.09c0.11,0,0.14-0.04,0.16-0.14l0.36-2.35c0.08-0.52-0.03-0.45-0.37-0.65c-0.05-0.03-0.13-0.04-0.24-0.03v-0.09
	l0.93-0.05l0.71,1.02l0.66-1.16l1.12-0.05v0.09h-0.09c-0.12,0.01-0.58,0.02-0.63,0.11c-0.02,0.05-0.09,0.22-0.04,0.41l0.56,2.26
	c0.06,0.27,0.3,0.39,0.33,0.42l-0.01,0.14l-1.2,0.08l0.01-0.15h0.04c0.11-0.02,0.19-0.06,0.24-0.15c0.03-0.05,0.1-0.19,0.04-0.36
	l-0.56-1.72L53.72,74.3z"/>
<path class="st1" d="M50.38,73.2v1.38L51,74.46c0.16-0.03,0.27-0.08,0.32-0.15c0.07-0.09,0.11-0.24,0.12-0.44l0.08-0.01v1.22
	l-0.08,0.01c-0.02-0.17-0.04-0.27-0.06-0.32c-0.02-0.06-0.07-0.1-0.13-0.12c-0.06-0.02-0.14-0.02-0.26,0l-0.62,0.12v1.15
	c0,0.15,0,0.25,0.01,0.28s0.03,0.05,0.06,0.07c0.03,0.01,0.08,0.01,0.16,0l0.48-0.09c0.16-0.03,0.28-0.06,0.35-0.11
	c0.07-0.04,0.14-0.11,0.21-0.2c0.09-0.13,0.17-0.3,0.26-0.53l0.09-0.01l-0.24,0.92l-2.17,0.41v-0.1l0.1-0.02
	c0.06-0.01,0.13-0.04,0.19-0.1c0.05-0.03,0.08-0.08,0.09-0.14c0.02-0.06,0.02-0.17,0.02-0.34v-2.27c0-0.22-0.02-0.35-0.05-0.4
	c-0.05-0.06-0.13-0.08-0.25-0.06l-0.1,0.02v-0.09l2.17-0.41l0.03,0.76l-0.09,0.01c-0.03-0.18-0.06-0.3-0.1-0.36
	c-0.03-0.06-0.09-0.11-0.16-0.13c-0.05-0.01-0.15-0.01-0.29,0.02L50.38,73.2z"/>
<path class="st1" d="M49.66,76.7l-0.85,0.26l-1.07-1.24c-0.08,0.03-0.14,0.05-0.19,0.06c-0.02,0-0.04,0.01-0.07,0.02
	c-0.02,0-0.05,0.01-0.07,0.02v0.97c0,0.21,0.02,0.34,0.06,0.38c0.06,0.05,0.15,0.06,0.27,0.02l0.13-0.04v0.09l-1.36,0.42v-0.09
	l0.12-0.04c0.14-0.04,0.23-0.12,0.29-0.23c0.03-0.06,0.05-0.19,0.05-0.38v-2.18c0-0.21-0.02-0.34-0.07-0.37
	c-0.06-0.05-0.15-0.06-0.27-0.02l-0.12,0.04V74.3l1.15-0.36c0.34-0.11,0.59-0.15,0.75-0.15s0.3,0.06,0.41,0.16
	c0.11,0.11,0.17,0.26,0.17,0.45c0,0.21-0.06,0.41-0.19,0.6c-0.13,0.19-0.32,0.36-0.59,0.51l0.66,0.76c0.15,0.17,0.28,0.28,0.39,0.32
	c0.11,0.04,0.25,0.04,0.42,0.01L49.66,76.7L49.66,76.7z M47.4,75.66c0.03-0.01,0.06-0.02,0.08-0.02c0.02,0,0.04-0.01,0.05-0.01
	c0.3-0.09,0.53-0.24,0.69-0.42c0.15-0.19,0.23-0.39,0.23-0.6s-0.06-0.36-0.19-0.45c-0.13-0.09-0.29-0.11-0.49-0.04
	c-0.09,0.03-0.21,0.08-0.37,0.16C47.4,74.27,47.4,75.66,47.4,75.66z"/>
<path class="st1" d="M57.07,74.86l0.76,0.04v0.2l-0.76-0.04V74.86z M57.07,74.32l0.76,0.04v0.2l-0.76-0.04V74.32z"/>
<path class="st1" d="M51.22,85.78v0.09l-1.32,0.16v-0.09l0.11-0.01c0.13-0.01,0.22-0.07,0.27-0.15c0.03-0.06,0.04-0.19,0.03-0.39
	l-0.14-2.18c-0.01-0.17-0.03-0.28-0.05-0.33c-0.02-0.04-0.05-0.07-0.1-0.1c-0.07-0.03-0.14-0.04-0.21-0.03l-0.11,0.01v-0.09
	l1.32-0.16v0.09l-0.11,0.01c-0.13,0.01-0.22,0.07-0.27,0.15c-0.04,0.06-0.05,0.19-0.03,0.39l0.14,2.18
	c0.01,0.17,0.03,0.28,0.05,0.33c0.02,0.04,0.05,0.07,0.1,0.09c0.07,0.03,0.14,0.04,0.21,0.03L51.22,85.78z"/>
<path class="st1" d="M49.72,82.76v0.09c-0.11,0.05-0.18,0.11-0.23,0.17c-0.07,0.1-0.14,0.25-0.2,0.43l-0.88,3.39l-0.08,0.02
	l-1.2-2.88c-0.05-0.14-0.09-0.21-0.12-0.24c-0.04-0.04-0.08-0.07-0.13-0.09c-0.05-0.02-0.12-0.01-0.21,0v-0.09l1.35-0.37v0.09
	c-0.13,0.05-0.22,0.1-0.26,0.15c-0.04,0.05-0.06,0.11-0.06,0.16c0,0.08,0.03,0.2,0.1,0.36l0.71,1.52l0.51-1.8
	c0.07-0.21,0.1-0.35,0.1-0.43c0-0.05-0.02-0.09-0.06-0.12s-0.11-0.04-0.21-0.04c0,0-0.02,0-0.03,0v-0.09L49.72,82.76z"/>
<path class="st1" d="M54.32,82.06l0.04,0.78l-0.1,0.01c-0.02-0.14-0.04-0.23-0.08-0.29c-0.05-0.09-0.12-0.15-0.21-0.19
	s-0.2-0.04-0.34-0.03l-0.48,0.05v2.57c0,0.21,0.02,0.33,0.07,0.38c0.06,0.06,0.16,0.09,0.29,0.07l0.12-0.01v0.09l-1.45,0.16v-0.09
	l0.12-0.01c0.14-0.01,0.25-0.07,0.31-0.16c0.04-0.06,0.06-0.18,0.06-0.37v-2.57l-0.41,0.04c-0.16,0.02-0.28,0.04-0.34,0.07
	c-0.09,0.04-0.16,0.11-0.22,0.21s-0.1,0.22-0.11,0.38l-0.1,0.01l0.04-0.79L54.32,82.06z"/>
<path class="st1" d="M56.09,84.41l-0.62-1.77l-0.59,1.75L56.09,84.41z M56.15,84.61L54.8,84.6l-0.15,0.32
	c-0.05,0.14-0.08,0.25-0.08,0.32c0,0.05,0.02,0.1,0.07,0.14c0.04,0.04,0.14,0.06,0.29,0.07v0.1l-0.98,0.03v-0.1
	c0.13-0.03,0.21-0.07,0.26-0.11c0.08-0.09,0.16-0.27,0.26-0.53l1.1-3.03h0.08l1.09,2.99c0.09,0.24,0.17,0.4,0.24,0.46
	c0.07,0.07,0.17,0.11,0.3,0.12v0.1l-1.23,0.04v-0.1c0.13-0.01,0.21-0.04,0.25-0.08c0.04-0.04,0.07-0.09,0.07-0.15
	c0-0.08-0.03-0.2-0.09-0.37L56.15,84.61z"/>
<path class="st3" d="M21.54,24.73c16.04,0.03,31.73-0.01,47.75,0l0.75,0.94c-9.29,0-16.09-0.01-22.94-0.01
	c0.39,0.45,0.32,1.61-1.44,0h-0.5c-0.84,0.11-1.5,0.31-2.35,0.64c-0.92,0.34-2.13,0.4-3.13,0.89c-0.86,0.49-2.3,3.14-4.33,4.66
	c-1.03,0.77-2.25,1.3-2.91,1.84c-0.55-0.12-1.57,0.35-2.29,1.01c-0.76,0.09-0.86-0.21-1.3-0.31c-0.53,0.03-1.72,1.18-1.87,1.18H25.1
	l-0.58-0.96l2.26,0.02c0.62-0.26,1.23-0.65,1.86-0.77c0.63-0.12,0.98,0.28,1.13,0.21l2.2-1H16.34l0.47-0.92h16.66
	c1-0.36,2.05-1.27,2.43-1.53H17.62l0.54-0.95l18.68-0.01c0.44-0.38,0.85-1.17,1.24-1.53H19.11l0.63-0.94h19.07
	c0.87-0.76,2.58-1.08,3.88-1.54c-6.32,0-13.01,0-21.87,0.01L21.54,24.73z M76.2,37.06H65.75c0.63,0.01,1.28,0.69,1.67,1.23
	c0.39,0.07,1.14-0.52,2.22,0.05c0.31,0.16,1.25-0.29,2.83,0.43c0.72-1.06,2.81-0.85,3.74-0.25l0.34-0.51L76.2,37.06z M61.04,36.81
	c0.28-0.02,0.66-0.04,1.16-0.04c1.18,0,1.51-0.53,1.51-0.53s1.43-0.42,1.43-0.04s0.24,0.59-0.24,0.59c-0.48,0-1.55,0.28-1.97,0.4
	c-0.42,0.11-1.53,0.55-1.92,0.36c-0.23-0.12-0.36-0.22-0.42-0.35c-0.43-0.13-1.03-0.27-1.85-0.39c-0.85-0.04-0.41-0.8-0.41-0.8
	C59.42,36.17,60.36,36.42,61.04,36.81 M75.61,35.53c-0.07-0.19-0.32-0.75-0.39-0.94H54.28c0.25,0.39,0.57,0.85,1.68,1.4
	c0.47,0.25,1.11-0.13,0.39-0.45h19.26V35.53z M74.06,32.12H52.34l1.15,1.44c0.15,0.19,0.54,0.36,0.66,0.31s0.36-0.16,0.05-0.81
	l20.32-0.01C74.44,32.87,74.14,32.31,74.06,32.12 M72.73,29.65H50.36l1,1.26c0.19,0.28,0.73,0.57,0.92,0.51
	c0.11-0.04,0.36-0.29-0.04-0.83l20.99,0.01L72.73,29.65z M71.79,28.14L50,28.12c0.32,0.63,0.03,0.83-0.13,0.83
	c-0.14,0.01-0.49-0.28-0.57-0.37c-0.51-0.49-1.13-0.96-1.65-1.4l23.48-0.01L71.79,28.14z M68.04,23.18L22.8,23.19l0.89-0.94
	l43.42-0.04L68.04,23.18z M65.49,20.73L25.2,20.74l1.08-0.96h38.15L65.49,20.73z M29.57,17.32l31.58-0.01l1.37,0.95H28.19
	C28.72,17.85,29.01,17.69,29.57,17.32 M45.43,12.37c2.52,0.03,5.22,0.5,6.92,0.94H38.38C40.69,12.65,43.04,12.34,45.43,12.37
	 M58.6,15.78H32.14c0.71-0.41,1.05-0.57,1.9-0.95c7.55,0,15.1,0,22.64,0C57.4,15.15,58.03,15.47,58.6,15.78 M15.25,35.57h0.65
	c0.5-0.66,1.49-0.01,1.85,0l1.66-0.01c0.4,0,2.54-1.08,3.27-1.28c0-0.15,0.02-0.53,0.02-0.69c-1.65,0.34-2.84,1.99-5.24,1.02h-1.8
	L15.25,35.57z"/>
<path class="st1" d="M15.25,36.63C13.17,42.08,12,48.17,12,54.6c0,23.06,15.02,41.83,33.42,41.83v0.42
	c-18.63,0-33.82-18.98-33.82-42.24c0-6.42,1.16-12.52,3.23-17.98H15.25L15.25,36.63z"/>
<path class="st1" d="M76.87,39.06c1.54,4.82,2.38,10.07,2.38,15.55c0,23.27-15.19,42.24-33.84,42.24v-0.42
	c18.42,0,33.43-18.77,33.43-41.83c0-5.49-0.85-10.73-2.4-15.54H76.87L76.87,39.06z"/>
<path class="st1" d="M86.7,61.91c-0.02-1.41-1.04-2.34-2.34-2.32s-2.28,0.98-2.25,2.39c0.02,1.41,1.03,2.34,2.34,2.32
	C85.75,64.29,86.73,63.33,86.7,61.91 M86.2,61.92c0.02,1.05-0.83,1.35-1.77,1.37c-0.94,0.01-1.79-0.25-1.8-1.28
	c-0.02-1.05,0.83-1.37,1.76-1.38C85.32,60.61,86.18,60.89,86.2,61.92 M86.88,53.98l-0.49-0.01v0.11c0,0.23-0.07,0.39-0.24,0.5
	l-1.82,1.25l-1.1-0.02c-0.17,0-0.23-0.07-0.23-0.27L83.01,55l-0.48-0.01l-0.05,2.54l0.48,0.01l0.01-0.55c0-0.2,0.14-0.26,0.28-0.26
	l1.03,0.02l1.82,1.4c0.15,0.12,0.21,0.28,0.21,0.51v0.11l0.48,0.01l0.04-2.07l-0.48-0.01l-0.01,0.48c0,0.11-0.08,0.15-0.15,0.15
	c-0.05,0-0.11-0.02-0.15-0.06l-1.08-0.83l1.11-0.72c0.05-0.04,0.11-0.06,0.16-0.06c0.08,0,0.15,0.05,0.15,0.16l-0.01,0.47l0.49,0.01
	L86.88,53.98z M86.07,48.19l0.02,0.28c0.02,0.28-0.04,0.44-0.24,0.45l-2.4,0.15c-1,0.06-1.25,0.95-1.2,1.8
	c0.06,0.84,0.42,1.67,1.56,1.6l2.16-0.14c0.28-0.02,0.36,0.04,0.38,0.31L86.37,53l0.48-0.03l-0.13-2.07l-0.48,0.03l0.02,0.3
	c0.02,0.3-0.07,0.4-0.33,0.42l-2.11,0.14c-0.64,0.04-0.91-0.32-0.95-0.87s0.17-0.91,0.63-0.94l2.41-0.16
	c0.17-0.01,0.26,0.05,0.28,0.38l0.02,0.3l0.48-0.03l-0.15-2.32L86.07,48.19z M79.87,36.65l-1.66-3.98l0.44-0.18l0.14,0.34
	c0.09,0.2,0.19,0.29,0.55,0.14l2.34-0.98c0.26-0.11,0.31-0.21,0.18-0.53l-0.12-0.27L82.19,31l1.66,3.97l-1.59,0.67l-0.19-0.45
	c0.78-0.43,1.08-0.64,0.74-1.45l-0.44-1.06l-1.25,0.53l0.13,0.32c0.15,0.36,0.4,0.45,0.89,0.24l0.08-0.03l0.19,0.45l-2.01,0.84
	l-0.18-0.44l0.14-0.06c0.49-0.2,0.61-0.44,0.45-0.81l-0.13-0.32l-1.4,0.59l0.51,1.2c0.23,0.55,0.67,0.63,1.58,0.3l0.19,0.44
	L79.87,36.65z M75.6,27.48l1.23,2.3c0.62,1.16,1.67,1.58,2.94,0.9c1.26-0.68,1.5-1.79,0.87-2.94l-1.23-2.3l-0.42,0.23l0.2,0.37
	c0.07,0.13,0.09,0.28-0.06,0.35l-2.57,1.38c-0.15,0.08-0.26-0.01-0.33-0.14l-0.2-0.37L75.6,27.48z M79.75,27.09l0.41,0.77
	c0.32,0.61,0.26,1.31-0.88,1.92c-1.13,0.61-1.77,0.28-2.12-0.39l-0.38-0.7L79.75,27.09z M53.49,9.53l0.1-0.47l-0.37-0.08
	c-0.21-0.05-0.28-0.18-0.25-0.38l0.58-2.67c0.05-0.24,0.26-0.27,0.47-0.22l0.28,0.06l0.1-0.47l-2.26-0.49l-0.1,0.47l0.36,0.08
	c0.25,0.05,0.3,0.2,0.26,0.36l-0.6,2.77c-0.04,0.17-0.15,0.21-0.42,0.15l-0.32-0.07l-0.1,0.47L53.49,9.53z M49.19,4.87
	c-0.26-0.3-0.72-0.54-1.14-0.58C46.7,4.17,45.8,5.1,45.69,6.32c-0.13,1.39,0.5,2.41,1.87,2.54c1.13,0.1,1.84-0.48,2.03-1.6
	l-0.56-0.05c-0.14,0.69-0.54,1.17-1.28,1.11c-0.94-0.09-1.11-1-1.04-1.84c0.08-0.85,0.4-1.7,1.35-1.61c0.78,0.07,1.09,0.68,1.11,1.4
	l0.48,0.04l0.16-1.78l-0.46-0.04L49.19,4.87z M41.98,8.69l-0.03-0.48l-0.51,0.03c-0.13,0.01-0.21-0.01-0.21-0.11
	c0-0.06,0-0.1,0.02-0.14l0.17-0.67l1.48-0.1l0.26,0.64c0.01,0.04,0.03,0.1,0.03,0.15c0,0.06-0.04,0.1-0.19,0.11l-0.51,0.03
	l0.03,0.48l2.26-0.15L44.75,8c-0.34,0.02-0.57,0-0.7-0.3l-1.53-3.39l-0.91,0.06L40.6,7.94c-0.09,0.31-0.32,0.37-0.66,0.4l0.03,0.48
	L41.98,8.69z M41.57,6.84l0.42-1.6H42l0.67,1.53L41.57,6.84z M37.8,9.39l0.93-0.27l-1-3.47c-0.03-0.13,0.02-0.25,0.25-0.31
	l0.37-0.11l-0.14-0.47l-2.05,0.59l0.14,0.46l0.38-0.11c0.23-0.06,0.36,0.01,0.41,0.2l0.64,2.23h-0.01l-2.68-2.47L33.19,6.2
	l0.14,0.46l0.44-0.13c0.2-0.06,0.28-0.01,0.32,0.15l0.79,2.76c0.04,0.15,0.01,0.27-0.18,0.32l-0.46,0.15l0.13,0.46l2.08-0.6
	l-0.14-0.46l-0.47,0.14c-0.16,0.05-0.28-0.02-0.33-0.17l-0.76-2.65h0.01L37.8,9.39z M71.68,21.87l1.41-1.21l-0.31-0.37
	c-0.81,0.61-1.2,0.73-1.64,0.22l-0.69-0.81l2.34-2c0.17-0.15,0.28-0.12,0.47,0.1l0.24,0.28l0.36-0.32l-1.55-1.81l-0.37,0.31
	l0.25,0.29c0.17,0.2,0.16,0.32,0.01,0.45l-2.12,1.81c-0.17,0.14-0.3,0.09-0.42-0.04l-0.28-0.32l-0.36,0.31L71.68,21.87z
	 M62.71,13.66l0.82,0.52l1.94-3.05c0.07-0.11,0.2-0.14,0.4-0.02l0.33,0.21l0.26-0.41l-1.8-1.14l-0.26,0.41l0.34,0.22
	c0.2,0.13,0.23,0.28,0.12,0.44l-1.25,1.96H63.6l0.08-3.65l-1.62-1.04L61.8,8.52l0.39,0.25c0.17,0.11,0.19,0.2,0.1,0.34l-1.54,2.41
	c-0.08,0.13-0.19,0.19-0.36,0.08L60,11.35l-0.26,0.41l1.82,1.16l0.26-0.41l-0.42-0.26c-0.14-0.09-0.17-0.23-0.09-0.36l1.49-2.33
	h0.01L62.71,13.66z M21.13,19.29l-0.35-0.33l-0.35,0.37c-0.09,0.09-0.16,0.14-0.23,0.07c-0.04-0.04-0.06-0.08-0.08-0.11l-0.32-0.61
	l1.02-1.07l0.62,0.29c0.04,0.02,0.09,0.05,0.13,0.09c0.05,0.04,0.04,0.11-0.07,0.21l-0.36,0.37l0.35,0.34l1.57-1.65l-0.35-0.33
	c-0.24,0.25-0.43,0.38-0.73,0.26l-3.43-1.46l-0.63,0.66l1.67,3.31c0.14,0.29,0.02,0.49-0.22,0.74l0.35,0.33L21.13,19.29z
	 M19.57,18.21l-0.78-1.46l0.01-0.01l1.53,0.68L19.57,18.21z M16.9,24.67l1.56-2.08c0.78-1.05,0.71-2.19-0.43-3.05
	c-1.15-0.85-2.25-0.6-3.04,0.45l-1.56,2.08l0.39,0.29l0.25-0.33c0.09-0.12,0.21-0.19,0.35-0.09l2.34,1.75
	c0.14,0.1,0.1,0.24,0.01,0.36l-0.25,0.34L16.9,24.67z M14.79,21.08l0.52-0.69c0.42-0.55,1.08-0.79,2.11-0.02
	c1.03,0.77,1,1.48,0.55,2.08l-0.48,0.64L14.79,21.08z M16.3,25.67l-1.21,1.96l-0.41-0.26l0.17-0.28c0.14-0.23,0.14-0.35,0-0.44
	l-2.41-1.49c-0.14-0.09-0.29-0.09-0.42,0.13l-0.19,0.31l-0.41-0.25l1.21-1.97l0.42,0.25l-0.15,0.25c-0.11,0.18-0.16,0.39,0.05,0.51
	l2.33,1.43c0.18,0.11,0.32,0.09,0.44-0.11l0.2-0.32L16.3,25.67z M10.68,27.56c-0.34,0.2-0.72,0.49-0.93,0.94
	c-0.33,0.72-0.31,1.64,0.53,2.02c1.7,0.77,2.13-2.22,3.15-1.77c0.28,0.13,0.42,0.49,0.18,1.01c-0.39,0.84-1.03,1.14-1.87,0.86
	l-0.2,0.44l1.61,0.73l0.18-0.41l-0.29-0.29c0.43-0.22,0.83-0.57,1.03-1.02c0.38-0.83,0.4-1.71-0.54-2.14
	c-1.66-0.75-2.2,2.2-3.09,1.8c-0.4-0.18-0.43-0.47-0.18-1.02c0.32-0.7,0.96-0.87,1.67-0.72l0.19-0.43l-1.5-0.68l-0.15,0.34
	L10.68,27.56z M10.6,38.26l-1.77-0.47L8.7,38.26c0.92,0.31,1.22,0.63,1.07,1.21l-0.34,1.26l-1.47-0.4l0.09-0.34
	c0.11-0.38,0.34-0.49,0.85-0.36l0.15,0.04l0.13-0.47l-2.11-0.56l-0.13,0.47l0.08,0.02c0.51,0.14,0.66,0.36,0.55,0.74L7.48,40.2
	l-1.31-0.35l0.3-1.11c0.23-0.84,0.59-0.83,1.47-0.69l0.13-0.47l-1.66-0.45L5.3,41.29l0.47,0.13l0.08-0.28
	c0.09-0.33,0.19-0.38,0.46-0.31l2.46,0.66c0.38,0.1,0.41,0.24,0.35,0.45l-0.1,0.35l0.47,0.13L10.6,38.26z M5.04,42.43l-0.35,2.06
	l0.47,0.08l0.06-0.39c0.03-0.19,0.1-0.3,0.21-0.28c0.08,0.01,0.14,0.05,0.24,0.11l2.19,1.27v0.01l-2.48,0.4
	c-0.09,0.02-0.17,0.04-0.28,0.02C5,45.69,4.96,45.6,5,45.41l0.07-0.4l-0.48-0.08L4.2,47.21l0.47,0.08l0.03-0.18
	c0.04-0.24,0.11-0.37,0.42-0.42l3.66-0.67l0.15-0.88L5.75,43.3c-0.29-0.17-0.35-0.32-0.3-0.62l0.02-0.15L5.04,42.43z M8.45,48.78
	l-0.48-0.04l-0.03,0.38c-0.01,0.22-0.14,0.31-0.34,0.29l-2.72-0.2c-0.25-0.02-0.3-0.22-0.28-0.43l0.02-0.28l-0.48-0.04l-0.17,2.31
	l0.48,0.04l0.03-0.37c0.02-0.25,0.15-0.32,0.32-0.31l2.83,0.21c0.17,0.01,0.23,0.12,0.21,0.39l-0.02,0.32l0.48,0.04L8.45,48.78z
	 M8.27,53.58v-0.97l-3.62,0.01c-0.13,0-0.23-0.09-0.23-0.32v-0.39H3.94l0.01,2.13h0.48v-0.4c0-0.24,0.11-0.34,0.31-0.34l2.32-0.01
	v0.01l-3.11,1.91v1.93h0.48v-0.46c0-0.2,0.06-0.27,0.24-0.27l2.87-0.01c0.15,0,0.26,0.06,0.26,0.27v0.46h0.49v-2.16H7.81v0.49
	c0,0.17-0.11,0.27-0.26,0.27l-2.76,0.01v-0.01L8.27,53.58z M4.85,63.28L4.83,63c-0.02-0.28,0.02-0.44,0.23-0.46l2.39-0.22
	c1-0.1,1.22-0.98,1.14-1.83c-0.08-0.84-0.46-1.66-1.6-1.55l-2.16,0.2c-0.28,0.02-0.36-0.03-0.39-0.3l-0.03-0.36l-0.48,0.04
	l0.19,2.07l0.48-0.04l-0.03-0.3c-0.02-0.3,0.06-0.4,0.32-0.42l2.1-0.2c0.64-0.06,0.92,0.29,0.97,0.84c0.05,0.55-0.15,0.91-0.61,0.96
	l-2.4,0.23c-0.17,0.01-0.26-0.04-0.29-0.37l-0.02-0.3l-0.48,0.04l0.22,2.31L4.85,63.28z M81.91,79.09l-0.45-0.17l-0.18,0.47
	c-0.04,0.12-0.1,0.19-0.18,0.15c-0.05-0.02-0.09-0.04-0.12-0.07l-0.54-0.43l0.53-1.39l0.69,0.03c0.04,0,0.1,0.01,0.15,0.03
	c0.06,0.02,0.07,0.08,0.02,0.22l-0.18,0.48l0.45,0.17l0.82-2.12l-0.45-0.17c-0.12,0.32-0.25,0.51-0.57,0.51l-3.73-0.03l-0.33,0.85
	l2.81,2.41c0.25,0.21,0.21,0.44,0.09,0.77l0.45,0.17L81.91,79.09z M80.06,78.69l-1.28-1.05v-0.01l1.67,0.03L80.06,78.69z
	 M80.06,83.01l-4.1,0.23v0.01l2.43,1.3c0.14,0.07,0.28,0.04,0.36-0.11l0.23-0.43l0.42,0.23l-1.02,1.91l-0.42-0.23l0.22-0.41
	c0.09-0.18,0.03-0.28-0.11-0.36l-2.52-1.36c-0.15-0.08-0.24-0.05-0.33,0.13L75,84.33l-0.42-0.23l0.91-1.7l3.64-0.2v-0.01l-2.05-1.1
	c-0.17-0.09-0.32-0.05-0.43,0.15l-0.19,0.35l-0.42-0.23l1-1.88l0.43,0.23l-0.19,0.34c-0.11,0.21-0.06,0.33,0.05,0.4l3.19,1.71
	L80.06,83.01z M77.32,87.7l-0.4-0.28l-0.21,0.31c-0.13,0.18-0.28,0.2-0.44,0.08l-2.24-1.57c-0.2-0.14-0.14-0.34-0.02-0.52l0.16-0.24
	l-0.4-0.28l-1.32,1.89l0.4,0.28l0.21-0.3c0.14-0.21,0.3-0.2,0.43-0.11l2.32,1.62c0.14,0.1,0.14,0.22-0.02,0.44l-0.18,0.27l0.4,0.28
	L77.32,87.7z M69.01,90.93l2.76-2.96l1.3,1.22l-0.33,0.36l-0.22-0.2c-0.5-0.47-0.98-0.42-1.47,0.11l2.29,2.13
	c0.13,0.12,0.21,0.11,0.35-0.03l0.34-0.36l0.35,0.33l-1.66,1.79l-0.35-0.33l0.34-0.36c0.14-0.15,0.14-0.24,0.01-0.36l-2.29-2.13
	c-0.49,0.53-0.51,1.01,0,1.48l0.22,0.2l-0.33,0.35L69.01,90.93z M69.72,95.74l0.76-0.59l-2.21-2.86c-0.08-0.11-0.07-0.24,0.12-0.38
	l0.3-0.24l-0.29-0.39l-1.68,1.3l0.29,0.38l0.32-0.25c0.18-0.14,0.34-0.12,0.45,0.04l1.42,1.84l-0.01,0.01l-3.41-1.3l-1.53,1.18
	l0.29,0.39l0.36-0.28c0.16-0.13,0.25-0.11,0.36,0.02l1.75,2.27c0.1,0.13,0.11,0.25-0.05,0.37l-0.36,0.28l0.29,0.38l1.71-1.32
	l-0.29-0.38l-0.39,0.3c-0.14,0.11-0.28,0.08-0.37-0.04l-1.69-2.18l0.01-0.01L69.72,95.74z M65.88,98.75l-3.68,2.24l-0.25-0.42
	l0.31-0.19c0.19-0.12,0.26-0.24,0.06-0.57L61,97.64c-0.14-0.24-0.26-0.28-0.55-0.1l-0.25,0.15l-0.25-0.42l3.68-2.24l0.89,1.47
	l-0.41,0.25c-0.55-0.7-0.8-0.97-1.54-0.51l-0.98,0.6l0.7,1.16l0.29-0.18c0.34-0.2,0.39-0.46,0.11-0.92l-0.04-0.07l0.42-0.25
	l1.13,1.86l-0.42,0.25l-0.08-0.13c-0.28-0.45-0.53-0.54-0.86-0.33l-0.3,0.18l0.79,1.3l1.11-0.68c0.51-0.31,0.52-0.75,0.06-1.61
	l0.41-0.25L65.88,98.75z M58.53,98.41c-0.42-0.15-0.9-0.19-1.39-0.01c-1.2,0.44-1.62,1.63-1.17,2.87c0.48,1.31,1.55,1.88,2.75,1.45
	c0.44-0.16,0.87-0.49,1.11-0.9l0.34,0.23l0.44-0.16l-0.51-1.41c-0.09-0.25-0.05-0.33,0.21-0.42l0.31-0.11l-0.17-0.45l-2.21,0.81
	l0.16,0.45l0.39-0.14c0.16-0.06,0.36-0.03,0.43,0.17l0.08,0.23c0.17,0.47,0,0.89-0.62,1.11c-0.86,0.31-1.42-0.28-1.76-1.21
	c-0.33-0.91-0.2-1.77,0.47-2.01c0.8-0.29,1.33,0.17,1.71,0.7l0.47-0.17L59,97.86l-0.45,0.16L58.53,98.41z M52.94,104.04l-0.13-0.46
	l-0.46,0.13c-0.19,0.05-0.28,0-0.32-0.15l-0.34-1.27l0.37-0.1c0.74-0.2,1.02-0.04,1.3,0.97c0.14,0.52,0.42,0.81,1.05,0.64
	c0.52-0.14,0.79-0.53,0.57-1.33l-0.05-0.19l-0.42,0.11l0.05,0.19c0.1,0.37,0.07,0.52-0.08,0.56c-0.11,0.03-0.29-0.03-0.47-0.7
	c-0.14-0.49-0.37-0.74-1.05-0.64v-0.01c0.62-0.23,1.08-0.69,0.91-1.35c-0.19-0.69-0.71-0.93-1.63-0.68l-2.74,0.75l0.13,0.47
	l0.44-0.12c0.19-0.05,0.28-0.01,0.32,0.15l0.76,2.79c0.04,0.16,0,0.25-0.2,0.3l-0.44,0.12l0.13,0.47L52.94,104.04z M51.2,100.51
	l0.81-0.22c0.55-0.15,0.87,0,0.98,0.39c0.13,0.47-0.01,0.74-0.69,0.93l-0.74,0.2L51.2,100.51z M46.39,105.03l-0.01-0.48l-0.51,0.01
	c-0.13,0-0.21-0.02-0.21-0.11c0-0.06,0.01-0.1,0.02-0.14l0.2-0.66l1.48-0.03l0.23,0.65c0.01,0.04,0.02,0.1,0.03,0.15
	c0,0.06-0.05,0.1-0.2,0.1l-0.51,0.01l0.01,0.48l2.27-0.04l-0.01-0.48c-0.34,0-0.56-0.04-0.69-0.34l-1.37-3.47l-0.92,0.01l-1.18,3.51
	c-0.11,0.31-0.33,0.36-0.68,0.37v0.48L46.39,105.03z M46.07,103.16l0.49-1.58h0.01l0.6,1.56L46.07,103.16z M33.93,103.24l0.17-0.45
	l-0.47-0.18c-0.12-0.04-0.19-0.1-0.15-0.18c0.02-0.05,0.05-0.09,0.07-0.12l0.43-0.54l1.39,0.53l-0.03,0.69
	c0,0.04-0.01,0.1-0.03,0.15c-0.02,0.06-0.09,0.07-0.23,0.02l-0.48-0.18l-0.17,0.45l2.12,0.81l0.17-0.45
	c-0.32-0.12-0.51-0.24-0.51-0.57l0.03-3.73l-0.85-0.33l-2.41,2.82c-0.21,0.25-0.44,0.21-0.77,0.09l-0.17,0.45L33.93,103.24z
	 M34.33,101.39l1.05-1.28h0.01l-0.03,1.67L34.33,101.39z M27.51,100.28l0.24-0.46l3.84-1.76l-0.81-0.42
	c-0.67-0.35-0.98-0.37-1.56,0.69l-0.43-0.22l0.83-1.61l3.13,1.62l-0.24,0.46l-3.83,1.76l0.7,0.36c0.88,0.46,1.2,0.46,1.85-0.69
	l0.43,0.22l-0.9,1.72L27.51,100.28z M16.08,90.49l0.59,0.76l2.86-2.22c0.1-0.08,0.24-0.07,0.38,0.12l0.24,0.3l0.39-0.3l-1.3-1.68
	l-0.38,0.3l0.24,0.31c0.14,0.19,0.12,0.34-0.03,0.46l-1.84,1.42l-0.01-0.01l1.3-3.41l-1.18-1.52l-0.38,0.3l0.28,0.36
	c0.13,0.16,0.11,0.25-0.02,0.35l-2.27,1.76c-0.13,0.1-0.25,0.11-0.37-0.05l-0.28-0.36l-0.38,0.3l1.32,1.71l0.38-0.3l-0.3-0.39
	c-0.11-0.14-0.08-0.28,0.04-0.37l2.18-1.69l0.01,0.01L16.08,90.49z M12.85,86.44l-2.09-3.77l0.42-0.24l0.18,0.32
	c0.11,0.19,0.23,0.28,0.56,0.08l2.22-1.24c0.24-0.14,0.28-0.25,0.12-0.55l-0.14-0.26l0.42-0.24l2.09,3.76l-1.51,0.84l-0.23-0.42
	c0.73-0.52,1-0.76,0.57-1.52l-0.55-1l-1.19,0.66l0.17,0.3c0.19,0.34,0.45,0.4,0.91,0.14l0.07-0.04l0.24,0.42l-1.91,1.06l-0.24-0.42
	l0.14-0.08c0.46-0.26,0.55-0.51,0.36-0.85l-0.17-0.3l-1.33,0.74l0.63,1.14c0.29,0.53,0.73,0.55,1.61,0.13l0.24,0.42L12.85,86.44z
	 M11.48,75.87L11.48,75.87l-2.87,2.6l0.22,0.49l3.87-0.36v0.01l-2.71,1.22c-0.12,0.05-0.25,0-0.32-0.17L9.5,79.27l-0.44,0.2
	l0.92,2.07l0.44-0.2l-0.17-0.38c-0.08-0.17-0.02-0.3,0.17-0.39L13,79.42c0.14-0.06,0.25,0,0.31,0.14l0.18,0.4l0.44-0.2l-0.81-1.8
	l-2.99,0.25V78.2l2.22-1.96l-0.83-1.87l-0.44,0.2l0.17,0.38c0.06,0.14,0.04,0.26-0.1,0.32l-2.66,1.19
	c-0.14,0.06-0.23,0.02-0.32-0.17l-0.15-0.35l-0.44,0.2l0.83,1.87l0.44-0.2l-0.17-0.37c-0.06-0.13-0.06-0.29,0.08-0.36L11.48,75.87z
	 M85.98,45.91c0.19-0.35,0.27-0.86,0.16-1.27c-0.34-1.32-1.52-1.85-2.7-1.54c-1.35,0.35-2.1,1.28-1.77,2.61
	c0.28,1.11,1.07,1.58,2.19,1.37l-0.14-0.55c-0.69,0.11-1.28-0.12-1.47-0.83c-0.24-0.91,0.56-1.39,1.38-1.6
	c0.83-0.21,1.74-0.2,1.97,0.73c0.19,0.76-0.28,1.26-0.95,1.52l0.12,0.47l1.73-0.44l-0.12-0.45L85.98,45.91z"/>
<path class="st1" d="M11.73,35.02l-0.46-0.16l-0.16,0.45c-0.07,0.19-0.15,0.23-0.31,0.17l-1.24-0.44l0.13-0.36
	c0.26-0.72,0.55-0.86,1.53-0.51c0.51,0.18,0.9,0.11,1.12-0.49c0.18-0.51,0.02-0.95-0.76-1.24l-0.19-0.07l-0.15,0.41l0.19,0.07
	c0.36,0.13,0.47,0.24,0.42,0.39c-0.04,0.11-0.19,0.22-0.84-0.02c-0.48-0.17-0.82-0.13-1.13,0.49H9.87c0.17-0.64,0.05-1.28-0.58-1.52
	c-0.67-0.24-1.17,0.05-1.49,0.95l-0.96,2.67l0.45,0.16l0.15-0.43c0.07-0.19,0.15-0.23,0.31-0.17l2.74,0.98
	c0.16,0.05,0.2,0.14,0.13,0.33l-0.15,0.43l0.45,0.16L11.73,35.02z M7.84,34.42l0.28-0.79c0.2-0.54,0.5-0.71,0.88-0.58
	c0.45,0.16,0.6,0.43,0.36,1.1L9.1,34.87L7.84,34.42z"/>
<path class="st1" d="M23.62,16.81l2.08-1.57c1.05-0.79,1.29-1.9,0.43-3.05c-0.86-1.14-1.99-1.2-3.04-0.41l-2.08,1.57l0.29,0.39
	l0.34-0.25c0.12-0.09,0.26-0.13,0.36,0l1.76,2.33c0.11,0.14,0.03,0.26-0.09,0.35l-0.33,0.25L23.62,16.81z M22.58,12.77l0.69-0.52
	c0.55-0.42,1.26-0.46,2.03,0.56c0.78,1.03,0.55,1.7-0.06,2.16l-0.64,0.49L22.58,12.77z"/>
<path class="st1" d="M66.04,16.18l0.32-0.36l-0.39-0.34c-0.09-0.08-0.14-0.15-0.08-0.23c0.04-0.04,0.07-0.06,0.11-0.09l0.59-0.35
	l1.11,0.97l-0.27,0.64c-0.02,0.04-0.04,0.09-0.09,0.14c-0.04,0.05-0.11,0.04-0.22-0.06l-0.39-0.34l-0.32,0.36l1.72,1.49l0.31-0.36
	c-0.26-0.23-0.4-0.41-0.28-0.71l1.3-3.49l-0.69-0.6l-3.23,1.82c-0.29,0.16-0.49,0.04-0.75-0.18l-0.32,0.36L66.04,16.18z
	 M67.05,14.57l1.42-0.84l0.01,0.01l-0.6,1.56L67.05,14.57z"/>
<path class="st1" d="M18,92.72l1.85,1.84c0.93,0.93,2.07,1.02,3.07,0c1.01-1.01,0.91-2.14-0.02-3.07l-1.84-1.84l-0.34,0.34
	l0.29,0.29c0.11,0.11,0.16,0.24,0.04,0.36l-2.06,2.07c-0.12,0.12-0.25,0.06-0.36-0.04l-0.3-0.3L18,92.72z M21.86,91.13l0.61,0.61
	c0.49,0.49,0.63,1.18-0.28,2.09c-0.91,0.91-1.6,0.78-2.14,0.25l-0.57-0.57L21.86,91.13z"/>
<path class="st1" d="M26.72,94.35c-1.23-0.7-2.54-0.31-3.19,0.81s-0.33,2.46,0.9,3.16c1.23,0.71,2.54,0.32,3.19-0.81
	C28.26,96.39,27.95,95.05,26.72,94.35 M26.46,94.79c0.91,0.52,0.72,1.4,0.26,2.22s-1.13,1.4-2.03,0.89
	c-0.91-0.53-0.75-1.41-0.28-2.22C24.89,94.86,25.57,94.27,26.46,94.79"/>
<path class="st1" d="M58.39,6.43c-1.3-0.55-2.56,0-3.06,1.2c-0.51,1.2-0.03,2.48,1.27,3.03c1.31,0.55,2.56,0,3.06-1.19
	C60.16,8.27,59.69,6.98,58.39,6.43 M58.19,6.9c0.97,0.41,0.89,1.31,0.53,2.17s-0.96,1.53-1.9,1.13c-0.97-0.41-0.92-1.31-0.55-2.17
	C56.63,7.17,57.24,6.5,58.19,6.9"/>
</svg>
